<svg width="624" height="731" viewBox="0 0 624 731" fill="none" xmlns="http://www.w3.org/2000/svg">
<g clip-path="url(#clip0_13_15)">
<mask id="mask0_13_15" style="mask-type:luminance" maskUnits="userSpaceOnUse" x="0" y="436" width="625" height="296">
<path d="M0.317078 436.953H624.317V731.317H0.317078V436.953Z" fill="white"/>
</mask>
<g mask="url(#mask0_13_15)">
<path fill-rule="evenodd" clip-rule="evenodd" d="M322.041 28.092C320.284 28.1713 318.619 28.9513 317.509 30.2468C257.78 102.572 218.952 200.412 207.181 306.884C192.252 314.789 168.551 330.243 148.734 357.489C127.754 386.321 111.663 428.082 116.234 485.892C116.643 490.995 122.8 493.295 126.459 489.7C126.459 489.7 161.747 456.055 209.321 454.548C210.484 464.027 211.739 473.519 213.351 482.865C213.839 485.747 216.363 487.823 219.296 487.823H314.669C302.95 518.162 285.868 543.544 265.034 565.462C259.657 564.391 254.187 563.81 248.704 563.81C222.387 563.889 197.616 576.25 181.815 597.322C170.348 590.196 157.123 586.389 143.621 586.31C103.551 586.31 71.064 618.804 71.064 658.926C71.064 698.969 103.551 731.463 143.621 731.463H537.69C577.76 731.463 610.247 698.969 610.247 658.926C610.247 618.804 577.76 586.31 537.69 586.31C515.006 586.389 493.643 597.031 479.956 615.076C473.668 609.973 466.467 606.007 458.739 603.495C443.48 578.841 416.555 563.81 387.569 563.81C385.059 563.81 382.536 563.81 380.025 564.246C358.147 541.244 343.958 515.505 334.089 487.902H425.327C428.273 487.902 430.784 485.813 431.272 482.865C432.858 473.519 434.1 464.106 435.262 454.614C482.665 456.267 517.794 489.766 517.794 489.766C521.453 493.362 527.623 490.995 528.019 485.959C532.617 427.871 516.34 385.964 495.215 357.132C475.266 329.886 451.486 314.578 436.676 306.738C424.971 200.412 386.327 102.718 326.81 30.3262C325.634 28.8852 323.877 28.1713 322.041 28.1713V28.092ZM322.133 133.916C323.56 133.916 324.934 134.419 326.004 135.357C350.115 156.059 365.044 195.309 367.395 239.516C367.58 242.966 364.832 245.848 361.384 245.848H282.895C279.447 245.848 276.699 242.966 276.884 239.516C279.223 195.309 294.099 156.125 318.13 135.357C319.253 134.352 320.667 133.85 322.146 133.85L322.133 133.916ZM500.13 529.742C487.989 529.742 478.001 539.737 478.001 551.885C478.001 563.955 487.989 574.029 500.13 574.029C512.271 574.029 522.259 564.034 522.259 551.885C522.259 539.737 512.271 529.742 500.13 529.742ZM165.75 543.901C159.435 543.901 154.23 549.083 154.23 555.402C154.23 561.734 159.435 566.903 165.75 566.903C172.065 566.903 177.27 561.734 177.27 555.402C177.27 549.083 172.065 543.901 165.75 543.901ZM612.097 577.545H612.083C605.768 577.545 600.563 582.793 600.563 589.126C600.563 595.445 605.768 600.627 612.083 600.627H612.097C618.412 600.627 623.604 595.445 623.604 589.126C623.604 582.793 618.412 577.545 612.097 577.545ZM282.539 600.257C288.246 600.257 292.936 605.002 292.936 610.687C292.936 616.371 288.246 621.038 282.539 621.038C276.831 621.038 272.141 616.371 272.141 610.687C272.141 605.002 276.831 600.257 282.539 600.257ZM394.73 630.596C404.929 630.53 413.318 638.938 413.318 649.143C413.318 659.362 404.929 667.77 394.73 667.77C384.517 667.77 376.128 659.362 376.128 649.143C376.128 638.938 384.517 630.596 394.73 630.596ZM178.248 634.839C190.746 634.839 201.024 645.124 201.024 657.63C201.024 670.07 190.746 680.421 178.248 680.421C165.75 680.421 155.458 670.07 155.458 657.63C155.458 645.124 165.75 634.839 178.248 634.839ZM528.72 641.74C531.613 641.74 533.978 644.12 533.978 646.988C533.978 649.87 531.613 652.237 528.72 652.237C525.826 652.237 523.448 649.87 523.448 646.988C523.448 644.12 525.826 641.74 528.72 641.74ZM33.0549 665.893C15.0874 665.893 0.303864 680.712 0.303864 698.678C0.303864 716.657 15.0874 731.383 33.0549 731.383C51.0356 731.383 65.8059 716.657 65.8059 698.678C65.8059 680.712 51.0356 665.893 33.0549 665.893ZM220.339 674.234C224.263 674.234 227.474 677.473 227.474 681.426C227.474 685.313 224.263 688.538 220.339 688.538C216.416 688.538 213.205 685.313 213.205 681.426C213.205 677.473 216.416 674.234 220.339 674.234ZM502.64 675.887C508.969 675.887 514.161 681.069 514.161 687.388C514.161 693.72 508.969 698.889 502.64 698.889C496.325 698.889 491.12 693.72 491.12 687.388C491.12 681.069 496.325 675.887 502.64 675.887Z" fill="black"/>
</g>
<mask id="mask1_13_15" style="mask-type:luminance" maskUnits="userSpaceOnUse" x="115" y="4" width="460" height="447">
<path d="M115 4H574.122V450.722H115V4Z" fill="white"/>
</mask>
<g mask="url(#mask1_13_15)">
<path d="M526.68 391.445V438.296C526.667 439.446 526.561 440.596 526.336 441.72C526.112 442.856 525.782 443.954 525.332 445.025C524.896 446.082 524.355 447.1 523.707 448.052C523.073 449.017 522.333 449.903 521.527 450.722C520.708 451.529 519.823 452.269 518.859 452.903C517.908 453.551 516.89 454.08 515.82 454.53C514.763 454.966 513.667 455.309 512.531 455.534C511.394 455.759 510.258 455.865 509.096 455.865H134.262C133.113 455.865 131.977 455.759 130.84 455.534C129.704 455.309 128.608 454.979 127.538 454.53C126.481 454.093 125.463 453.551 124.512 452.903C123.548 452.269 122.663 451.542 121.844 450.722C121.024 449.903 120.298 449.017 119.664 448.052C119.016 447.1 118.475 446.082 118.039 445.025C117.589 443.954 117.259 442.856 117.035 441.72C116.81 440.596 116.691 439.446 116.691 438.296V16.572C116.691 15.4087 116.81 14.2718 117.035 13.1349C117.259 12.0112 117.589 10.9139 118.039 9.84314C118.475 8.77234 119.016 7.76764 119.664 6.8026C120.298 5.85077 121.024 4.95183 121.844 4.14542C122.663 3.3258 123.548 2.59871 124.512 1.95094C125.463 1.31639 126.481 0.774383 127.538 0.338131C128.608 -0.111339 129.704 -0.441832 130.84 -0.666571C131.977 -0.891306 133.113 -1.01028 134.262 -1.01028H509.096C510.258 -1.01028 511.394 -0.891306 512.531 -0.666571C513.667 -0.441832 514.763 -0.111339 515.82 0.338131C516.89 0.774383 517.908 1.31639 518.859 1.96416C519.823 2.59871 520.708 3.3258 521.527 4.14542C522.333 4.96505 523.073 5.85077 523.707 6.8026C524.355 7.76764 524.896 8.77234 525.332 9.84314C525.782 10.9139 526.112 12.0112 526.336 13.1349C526.561 14.2718 526.667 15.4087 526.68 16.572V180.576C526.68 181.726 526.561 182.877 526.336 184C526.112 185.137 525.782 186.234 525.332 187.305C524.896 188.363 524.355 189.381 523.707 190.346C523.073 191.298 522.347 192.183 521.527 193.003C520.708 193.823 519.823 194.55 518.859 195.184C517.908 195.832 516.89 196.374 515.82 196.81C514.763 197.26 513.667 197.59 512.531 197.815C511.394 198.04 510.258 198.145 509.096 198.145C507.946 198.145 506.81 198.04 505.674 197.815C504.538 197.59 503.441 197.26 502.371 196.81C501.314 196.374 500.297 195.832 499.332 195.184C498.381 194.55 497.496 193.823 496.677 193.003C495.858 192.183 495.131 191.298 494.484 190.346C493.85 189.381 493.308 188.363 492.872 187.305C492.423 186.234 492.093 185.137 491.868 184C491.643 182.877 491.524 181.726 491.524 180.576V34.1411H151.847V420.727H491.524V391.445C491.524 390.281 491.643 389.145 491.868 388.008C492.093 386.884 492.423 385.774 492.872 384.716C493.308 383.645 493.85 382.64 494.484 381.675C495.131 380.71 495.858 379.825 496.677 379.018C497.496 378.199 498.381 377.472 499.332 376.824C500.297 376.189 501.314 375.647 502.371 375.198C503.441 374.761 504.538 374.431 505.674 374.206C506.81 373.982 507.946 373.863 509.096 373.863C510.258 373.863 511.394 373.982 512.531 374.206C513.667 374.431 514.763 374.761 515.82 375.198C516.89 375.647 517.908 376.189 518.859 376.824C519.823 377.472 520.708 378.199 521.527 379.018C522.347 379.825 523.073 380.71 523.707 381.675C524.355 382.64 524.896 383.645 525.332 384.716C525.782 385.774 526.112 386.884 526.336 388.008C526.561 389.145 526.68 390.281 526.68 391.445ZM568.375 220.87C567.556 220.051 566.671 219.323 565.72 218.689C564.755 218.041 563.738 217.499 562.681 217.063C561.611 216.627 560.514 216.283 559.378 216.058C558.255 215.833 557.106 215.728 555.956 215.728C554.807 215.728 553.658 215.833 552.535 216.058C551.398 216.283 550.302 216.627 549.232 217.063C548.175 217.499 547.158 218.041 546.193 218.689C545.242 219.323 544.357 220.051 543.538 220.87L427.106 337.31L380.958 291.146C380.152 290.314 379.267 289.547 378.303 288.886C377.338 288.225 376.321 287.656 375.251 287.194C374.181 286.731 373.071 286.374 371.922 286.136C370.786 285.885 369.623 285.766 368.46 285.753C367.285 285.74 366.135 285.845 364.986 286.07C363.836 286.282 362.713 286.612 361.643 287.062C360.56 287.498 359.529 288.04 358.552 288.688C357.587 289.335 356.676 290.076 355.857 290.895C355.024 291.728 354.298 292.627 353.65 293.605C353.003 294.57 352.448 295.602 352.012 296.686C351.576 297.77 351.246 298.88 351.021 300.03C350.797 301.18 350.704 302.344 350.718 303.507C350.718 304.67 350.85 305.834 351.087 306.971C351.338 308.121 351.695 309.231 352.158 310.302C352.62 311.373 353.188 312.391 353.849 313.356C354.522 314.307 355.275 315.193 356.121 316L414.674 374.576C415.493 375.396 416.378 376.123 417.343 376.758C418.307 377.405 419.311 377.947 420.381 378.384C421.451 378.833 422.548 379.164 423.684 379.388C424.807 379.613 425.956 379.719 427.106 379.719C428.255 379.719 429.404 379.613 430.527 379.388C431.664 379.164 432.76 378.833 433.83 378.384C434.9 377.947 435.904 377.405 436.869 376.758C437.833 376.123 438.719 375.396 439.538 374.576L568.375 245.71C569.194 244.891 569.921 244.005 570.555 243.04C571.202 242.088 571.744 241.07 572.18 240.012C572.629 238.942 572.959 237.844 573.184 236.707C573.409 235.584 573.514 234.434 573.514 233.284C573.514 232.133 573.409 230.983 573.184 229.86C572.959 228.723 572.629 227.626 572.18 226.568C571.744 225.497 571.202 224.479 570.555 223.527C569.921 222.562 569.194 221.677 568.375 220.857V220.87ZM415.387 92.7178H298.255C297.092 92.6914 295.93 92.7707 294.767 92.9822C293.618 93.1805 292.495 93.4978 291.412 93.9341C290.315 94.3571 289.285 94.8859 288.294 95.5204C287.316 96.1682 286.404 96.8953 285.559 97.7017C284.727 98.5213 283.974 99.4203 283.313 100.385C282.652 101.35 282.098 102.381 281.648 103.465C281.186 104.536 280.843 105.66 280.618 106.797C280.38 107.947 280.261 109.11 280.261 110.287C280.261 111.45 280.38 112.614 280.618 113.764C280.843 114.914 281.186 116.024 281.648 117.108C282.098 118.192 282.652 119.21 283.313 120.175C283.974 121.154 284.727 122.039 285.559 122.859C286.404 123.679 287.316 124.406 288.294 125.04C289.285 125.675 290.315 126.203 291.412 126.64C292.495 127.063 293.618 127.38 294.767 127.592C295.93 127.79 297.092 127.882 298.255 127.856H415.387C416.563 127.882 417.726 127.79 418.875 127.592C420.038 127.38 421.147 127.063 422.244 126.64C423.34 126.203 424.371 125.675 425.349 125.04C426.339 124.406 427.251 123.679 428.083 122.859C428.929 122.039 429.682 121.154 430.329 120.175C430.99 119.21 431.558 118.192 432.007 117.108C432.456 116.024 432.8 114.914 433.038 113.764C433.275 112.614 433.381 111.45 433.381 110.287C433.381 109.11 433.275 107.947 433.038 106.797C432.8 105.66 432.456 104.536 432.007 103.465C431.558 102.381 430.99 101.35 430.329 100.385C429.682 99.4203 428.929 98.5213 428.083 97.7017C427.251 96.8953 426.339 96.1682 425.349 95.5204C424.371 94.8859 423.34 94.3571 422.244 93.9341C421.147 93.4978 420.038 93.1805 418.875 92.9822C417.726 92.7707 416.563 92.6914 415.387 92.7178ZM227.984 127.856C229.133 127.856 230.283 127.737 231.406 127.512C232.542 127.288 233.638 126.957 234.708 126.521C235.765 126.071 236.783 125.529 237.747 124.895C238.698 124.247 239.597 123.52 240.402 122.7C241.222 121.894 241.948 120.995 242.596 120.043C243.23 119.078 243.771 118.073 244.221 117.003C244.657 115.932 244.987 114.834 245.211 113.698C245.436 112.574 245.555 111.424 245.555 110.274C245.555 109.124 245.436 107.973 245.211 106.85C244.987 105.713 244.657 104.616 244.207 103.545C243.771 102.487 243.23 101.469 242.582 100.504C241.948 99.5524 241.222 98.6667 240.402 97.8471C239.583 97.0275 238.698 96.3004 237.734 95.6658C236.783 95.0181 235.765 94.4761 234.695 94.0398C233.638 93.6036 232.528 93.2598 231.406 93.0351C230.269 92.8104 229.133 92.7046 227.971 92.7046C226.821 92.7046 225.672 92.8236 224.549 93.0483C223.413 93.2731 222.316 93.6036 221.246 94.0398C220.176 94.4893 219.172 95.0313 218.207 95.6658C217.256 96.3136 216.358 97.0407 215.552 97.8603C214.733 98.6799 214.006 99.5657 213.359 100.517C212.725 101.483 212.183 102.5 211.747 103.558C211.298 104.629 210.967 105.726 210.743 106.863C210.518 107.987 210.413 109.137 210.413 110.287C210.413 111.437 210.518 112.587 210.743 113.711C210.967 114.848 211.311 115.945 211.747 117.016C212.183 118.073 212.725 119.091 213.372 120.043C214.019 121.008 214.746 121.894 215.552 122.713C216.371 123.52 217.256 124.247 218.221 124.895C219.185 125.529 220.189 126.071 221.259 126.521C222.316 126.957 223.426 127.288 224.549 127.512C225.685 127.737 226.821 127.856 227.984 127.856ZM227.984 221.571C229.133 221.571 230.283 221.465 231.406 221.24C232.542 221.016 233.638 220.672 234.708 220.236C235.765 219.799 236.783 219.257 237.747 218.61C238.698 217.975 239.583 217.248 240.402 216.428C241.222 215.609 241.948 214.723 242.596 213.758C243.23 212.806 243.771 211.788 244.221 210.731C244.657 209.66 244.987 208.563 245.211 207.426C245.436 206.302 245.555 205.152 245.555 204.002C245.555 202.838 245.436 201.702 245.211 200.565C244.987 199.441 244.657 198.344 244.221 197.273C243.771 196.202 243.23 195.197 242.596 194.232C241.948 193.281 241.222 192.382 240.402 191.575C239.583 190.756 238.698 190.029 237.747 189.381C236.783 188.746 235.765 188.204 234.708 187.768C233.638 187.318 232.542 186.988 231.406 186.763C230.283 186.538 229.133 186.42 227.984 186.42C226.821 186.42 225.685 186.538 224.549 186.763C223.426 186.988 222.316 187.318 221.259 187.768C220.189 188.204 219.172 188.746 218.221 189.381C217.256 190.029 216.371 190.756 215.552 191.575C214.733 192.382 214.006 193.281 213.372 194.232C212.725 195.197 212.183 196.202 211.747 197.273C211.298 198.344 210.967 199.441 210.743 200.565C210.518 201.702 210.413 202.838 210.413 204.002C210.413 205.152 210.518 206.302 210.743 207.426C210.967 208.563 211.298 209.66 211.747 210.731C212.183 211.788 212.725 212.806 213.372 213.758C214.006 214.723 214.733 215.609 215.552 216.428C216.371 217.248 217.256 217.975 218.221 218.61C219.172 219.257 220.189 219.799 221.259 220.236C222.316 220.672 223.426 221.016 224.549 221.24C225.685 221.465 226.821 221.571 227.984 221.571ZM432.958 204.002C432.958 202.852 432.853 201.702 432.628 200.578C432.403 199.441 432.06 198.344 431.624 197.273C431.175 196.215 430.633 195.197 429.999 194.246C429.352 193.281 428.625 192.395 427.819 191.575C427 190.769 426.115 190.029 425.15 189.394C424.186 188.759 423.182 188.217 422.112 187.768C421.042 187.332 419.945 187.001 418.822 186.776C417.686 186.552 416.55 186.433 415.387 186.433H298.255C297.092 186.406 295.93 186.499 294.767 186.697C293.618 186.909 292.495 187.226 291.412 187.649C290.315 188.072 289.285 188.614 288.294 189.249C287.316 189.883 286.404 190.61 285.559 191.43C284.727 192.249 283.974 193.135 283.313 194.113C282.652 195.078 282.098 196.096 281.648 197.18C281.186 198.264 280.843 199.375 280.618 200.525C280.38 201.675 280.261 202.838 280.261 204.002C280.261 205.178 280.38 206.342 280.618 207.479C280.843 208.629 281.186 209.752 281.648 210.823C282.098 211.907 282.652 212.925 283.313 213.903C283.974 214.868 284.727 215.754 285.559 216.574C286.404 217.393 287.316 218.121 288.294 218.755C289.285 219.403 290.315 219.932 291.412 220.355C292.495 220.791 293.618 221.108 294.767 221.306C295.93 221.518 297.092 221.597 298.255 221.571H415.387C416.55 221.571 417.686 221.465 418.822 221.24C419.945 221.016 421.055 220.672 422.112 220.236C423.182 219.799 424.199 219.257 425.15 218.61C426.115 217.975 427 217.248 427.819 216.428C428.638 215.609 429.365 214.723 429.999 213.758C430.646 212.806 431.188 211.788 431.624 210.731C432.073 209.66 432.403 208.563 432.628 207.426C432.853 206.302 432.958 205.152 432.958 204.002ZM227.984 315.299H298.255C299.418 315.299 300.554 315.18 301.69 314.955C302.826 314.731 303.923 314.4 304.98 313.951C306.05 313.514 307.067 312.972 308.018 312.338C308.983 311.69 309.868 310.963 310.687 310.143C311.506 309.324 312.233 308.438 312.867 307.486C313.514 306.521 314.056 305.516 314.492 304.446C314.941 303.375 315.271 302.278 315.496 301.154C315.721 300.017 315.826 298.867 315.826 297.717C315.826 296.567 315.721 295.416 315.496 294.293C315.271 293.156 314.941 292.059 314.492 290.988C314.056 289.93 313.514 288.912 312.867 287.961C312.233 286.995 311.506 286.11 310.687 285.29C309.868 284.47 308.983 283.743 308.018 283.109C307.067 282.461 306.05 281.919 304.98 281.483C303.923 281.047 302.826 280.703 301.69 280.478C300.554 280.253 299.418 280.148 298.255 280.148H227.984C226.821 280.148 225.685 280.253 224.549 280.478C223.426 280.703 222.316 281.047 221.259 281.483C220.189 281.919 219.172 282.461 218.221 283.109C217.256 283.743 216.371 284.47 215.552 285.29C214.733 286.11 214.006 286.995 213.372 287.961C212.725 288.912 212.183 289.93 211.747 290.988C211.298 292.059 210.967 293.156 210.743 294.293C210.518 295.416 210.413 296.567 210.413 297.717C210.413 298.867 210.518 300.017 210.743 301.154C210.967 302.278 211.298 303.375 211.747 304.446C212.183 305.516 212.725 306.521 213.372 307.486C214.006 308.438 214.733 309.324 215.552 310.143C216.371 310.963 217.256 311.69 218.221 312.338C219.172 312.972 220.189 313.514 221.259 313.951C222.316 314.4 223.426 314.731 224.549 314.955C225.685 315.18 226.821 315.299 227.984 315.299Z" fill="black"/>
</g>
</g>
<defs>
<clipPath id="clip0_13_15">
<rect width="624" height="731" fill="white"/>
</clipPath>
</defs>
</svg>
